<?xml version="1.0" encoding="UTF-8"?>
<!DOCTYPE svg PUBLIC "-//W3C//DTD SVG 1.1//EN" "http://www.w3.org/Graphics/SVG/1.1/DTD/svg11.dtd">
<!-- Creator: CorelDRAW X8 -->
<svg xmlns="http://www.w3.org/2000/svg" xml:space="preserve" width="75px" height="75px" version="1.1" style="shape-rendering:geometricPrecision; text-rendering:geometricPrecision; image-rendering:optimizeQuality; fill-rule:evenodd; clip-rule:evenodd"
viewBox="0 0 75 75"
 xmlns:xlink="http://www.w3.org/1999/xlink">
 <defs>
  <style type="text/css">
   <![CDATA[
    .fil1 {fill:#FEFEFE}
    .fil0 {fill:#FEFEFE;fill-rule:nonzero}
   ]]>
  </style>
 </defs>
 <g id="Camada_x0020_1">
  <metadata id="CorelCorpID_0Corel-Layer"/>
  <path class="fil0" d="M26 72l-2 -1c-1,0 -1,-1 -1,-1 0,0 -1,0 -1,0 0,0 0,-1 0,-1 0,0 0,0 0,-1 0,0 0,0 1,0 0,-1 0,-1 0,-1 0,0 0,0 0,-1 0,0 0,0 0,-1 0,0 0,0 0,0 1,0 1,-1 1,-1 0,0 1,0 1,0 0,0 1,1 2,1l2 1 -3 6zm-1 -2l1 -1 -1 0c0,-1 -1,-1 -1,-1 0,0 0,0 0,0 -1,0 -1,0 -1,1 0,0 0,0 0,0 0,0 0,0 1,1 0,0 0,0 1,0l0 0zm1 -2l1 -2 -1 0c-1,0 -1,-1 -1,-1 0,0 0,0 -1,1 0,0 0,0 0,0 0,0 0,0 0,1 0,0 0,0 0,0 0,0 1,0 1,0l1 1zm-9 -1l-1 0 2 -3c1,-1 1,-1 1,-1 0,0 0,-1 0,-1 0,0 0,0 0,-1 -1,0 -1,0 -1,0 0,0 -1,0 -1,0 0,0 0,1 -1,1l-2 3 -1 -1 2 -3c1,0 1,-1 1,-1 1,0 1,0 1,0 1,0 1,0 1,0 1,0 1,0 1,0 1,1 1,1 1,1 0,1 0,1 0,1 0,1 0,1 0,1 0,1 0,1 -1,2l-2 2zm-2 -10l-5 4 0 -1 4 -4 1 1zm-2 -3l-6 3 0 -1 4 -3 -1 -3 0 0 3 4zm-10 -5l0 -3c0,0 -1,-1 0,-1 0,0 0,-1 0,-1 0,0 0,-1 1,-1 0,0 1,0 1,0 1,0 1,-1 2,0 0,0 1,0 1,0 0,0 0,0 1,1 0,0 0,0 0,1l1 2 -7 2zm1 -2l4 -1 0 -1c0,0 0,0 0,-1 0,0 -1,0 -1,0 0,0 0,0 0,0 -1,0 -1,0 -2,0 0,0 0,0 -1,0 0,1 0,1 0,1 0,0 0,0 0,1 0,0 0,0 0,1l0 0zm4 -15l-5 -1 0 1 -1 0 1 -5 1 0 0 2 5 2 -1 1zm2 -6l-6 -3 1 -1 2 1 1 -2 -2 -1 1 -1 5 3 0 1 -3 -1 -1 2 3 1 -1 1zm4 -7l-5 -4 3 -4 1 1 -2 3 1 1 2 -3 1 1 -2 2 1 2 2 -3 1 1 -3 3zm8 -7l-3 -6 4 -2 1 1 -3 1 0 2 3 -1 0 0 -2 2 1 2 -1 1zm5 -10l1 0 1 4c0,0 0,0 0,1 1,0 1,0 1,0 0,0 0,0 1,0 0,0 0,0 1,0 0,0 0,-1 0,-1 0,0 0,0 0,-1l-1 -3 1 -1 1 4c0,0 0,1 0,1 0,1 0,1 0,1 0,0 0,1 -1,1 0,0 0,0 -1,0 0,0 -1,0 -1,0 -1,0 -1,0 -1,0 0,0 -1,0 -1,-1 0,0 0,0 0,-1l-1 -4zm11 5l0 -5 -2 0 0 -1 5 0 0 1 -2 0 0 5 -1 0zm7 -5l2 0 -1 3c-1,1 -1,1 -1,1 0,1 0,1 1,1 0,0 0,1 0,1 1,0 1,0 1,0 0,0 1,-1 1,-1 0,0 0,0 0,-1l1 -3 1 0 -1 3c0,1 0,2 0,2 0,0 -1,0 -1,1 0,0 0,0 -1,0 0,0 0,0 -1,0 -1,0 -1,-1 -1,-1 -1,0 -1,0 -1,-1 0,0 0,0 0,0 0,-1 0,-1 0,-2l1 -3zm6 9l4 -6 2 2c1,0 1,0 1,1 0,0 0,0 0,0 0,1 0,1 0,1 0,1 0,1 -1,1 0,0 -1,0 -1,0 0,0 0,1 0,1 0,0 0,1 0,1l0 2 -1 -1 0 -2c0,0 0,-1 0,-1 0,0 0,0 0,0 -1,-1 -1,-1 -1,-1l0 0 -2 2 -1 0zm3 -3l1 1c1,0 1,0 1,0 0,0 0,0 1,0 0,0 0,0 0,0 0,0 0,-1 0,-1 0,0 0,0 0,0 0,0 0,0 -1,-1l-1 0 -1 1zm4 7l4 -4 4 3 -1 1 -2 -3 -1 1 2 3 -1 1 -2 -3 -2 1 3 3 -1 1 -3 -4zm8 8l1 0 1 2 -1 0 -1 -2zm1 9l6 -1 1 3c0,1 0,1 0,2 0,0 -1,0 -1,0 0,1 -1,1 -1,1 0,0 -1,0 -1,-1 0,0 -1,0 -1,-1 0,0 0,1 0,1 0,0 -1,0 -1,1l-2 1 0 -2 2 -1c0,0 0,-1 1,-1 0,0 0,0 0,0 0,0 0,-1 0,-1l0 0 -3 0 0 -1zm4 1l0 1c0,0 0,1 0,1 0,0 0,0 0,0 1,0 1,0 1,0 0,0 0,0 0,0 1,0 1,0 1,0 0,0 0,-1 0,-1l0 -1 -2 0zm-4 7l7 1 0 1 -7 -1 0 -1zm1 9l-1 1c-1,-1 -1,-1 -1,-2 0,0 0,-1 0,-2 0,0 1,-1 1,-1 1,-1 2,-1 3,0 1,0 2,1 2,1 0,1 0,2 0,3 0,0 -1,1 -1,1 -1,0 -1,1 -1,1l0 -2c0,0 0,0 1,0 0,0 0,0 0,-1 0,0 0,-1 0,-1 0,0 -1,-1 -1,-1 -1,0 -2,0 -2,0 -1,0 -1,0 -1,1 0,0 0,0 0,1 0,0 0,0 1,1zm-4 3l5 3 -2 4 -1 -1 2 -2 -2 -1 -1 2 -1 0 2 -3 -2 -1 -2 3 -1 0 3 -4zm-5 6l5 4 -1 1 -4 -4 -2 3 -1 -1 3 -3zm-5 4l3 6 -1 0 -3 -4 -2 1 -1 0 4 -3zm-7 4l1 2 3 3 -2 1 -2 -2 -1 2 -1 1 1 -4 0 -3 1 0zm-9 3l0 1 -3 0 0 -1 3 0z"/>
  <path class="fil0" d="M42 40l6 -27 -9 24 0 0 -7 0 0 1 10 2zm-20 -5l8 -6 -8 6z"/>
  <path class="fil1" d="M20 36l12 -9 -2 22 -10 -13zm4 0l6 -4 -1 11 -5 -7z"/>
 </g>
</svg>
